<?xml version="1.0" encoding="utf-8"?>
<!-- Generator: Adobe Illustrator 16.0.0, SVG Export Plug-In . SVG Version: 6.00 Build 0)  -->
<!DOCTYPE svg PUBLIC "-//W3C//DTD SVG 1.1//EN" "http://www.w3.org/Graphics/SVG/1.1/DTD/svg11.dtd">
<svg version="1.1" id="Layer_1" xmlns="http://www.w3.org/2000/svg" xmlns:xlink="http://www.w3.org/1999/xlink" x="0px" y="0px"
	 width="140px" height="140px" viewBox="0 0 140 140" enable-background="new 0 0 140 140" xml:space="preserve">
<g>
	<g>
		<path fill="#71C38A" d="M38.302,70c0-0.161,0.004-0.319,0.008-0.478c-3.519-0.45-6.998-1.388-10.405-2.807
			c-0.111,1.082-0.172,2.177-0.172,3.285"/>
		<path fill="#71C38A" d="M87.311,54.845c0,0-0.423-0.188-0.555-0.249c-0.135-0.062-0.269-0.121-0.403-0.184
			c-0.16-0.076-0.318-0.155-0.477-0.233c-0.132-0.065-0.265-0.128-0.396-0.195c-0.196-0.099-0.39-0.2-0.585-0.301
			c-0.093-0.049-0.187-0.096-0.28-0.145c-0.296-0.156-0.591-0.312-0.884-0.468l0,0c-0.353-0.187-0.707-0.375-1.063-0.562
			c-1.539-0.804-3.183-1.736-4.586-2.54l-0.025-0.014c-3.774-2.14-8.073-4.576-12.722-6.305l0,0
			c-0.007-0.003-0.015-0.005-0.022-0.008c-0.584-0.217-1.174-0.422-1.769-0.615c-0.076-0.025-0.152-0.05-0.228-0.074
			c-0.141-0.045-0.282-0.088-0.424-0.131c-0.105-0.032-0.211-0.064-0.317-0.096c-0.128-0.038-0.257-0.075-0.386-0.112
			c-0.123-0.035-0.247-0.069-0.37-0.103c-0.117-0.032-0.234-0.064-0.351-0.095c-0.146-0.039-0.293-0.075-0.44-0.112
			c-0.098-0.024-0.196-0.049-0.294-0.073c-0.241-0.058-0.483-0.114-0.727-0.167c-0.008-0.001-0.016-0.004-0.025-0.005
			c-0.001,0-0.003-0.001-0.004-0.001c-0.178-0.039-0.356-0.073-0.535-0.109c-0.089-0.018-0.177-0.037-0.266-0.054
			c0,0-0.001,0-0.002,0c-0.002,0-0.004,0-0.006-0.001c-0.355-0.068-0.712-0.127-1.07-0.182c-0.088-0.014-0.177-0.027-0.266-0.04
			c-0.49-0.072-0.983-0.13-1.479-0.176c-0.125-0.012-0.251-0.025-0.377-0.035c0,0-0.001,0-0.001,0
			c-0.166-0.014-0.333-0.023-0.499-0.033c-0.097-0.006-0.193-0.013-0.289-0.018c-0.001,0-0.001,0-0.002,0
			c-0.314-0.017-0.63-0.028-0.947-0.033h-0.388c-0.309,0.005-0.617,0.017-0.924,0.033c-0.114,0.006-0.228,0.015-0.341,0.022
			c-0.19,0.012-0.38,0.025-0.57,0.042c-0.142,0.012-0.284,0.027-0.426,0.042c-0.16,0.017-0.319,0.034-0.478,0.053
			c-0.155,0.019-0.31,0.041-0.465,0.062c-0.145,0.021-0.289,0.042-0.434,0.065c-0.161,0.025-0.322,0.052-0.483,0.081
			c-0.139,0.025-0.276,0.051-0.415,0.079c-0.161,0.031-0.323,0.062-0.484,0.098c-0.143,0.03-0.285,0.064-0.427,0.098
			c-0.153,0.036-0.307,0.07-0.46,0.109c-0.202,0.051-0.402,0.107-0.602,0.163c-0.086,0.024-0.173,0.045-0.258,0.07
			c-5.271,1.532-9.719,4.687-13.02,8.866c3.345,1.463,6.667,2.206,9.886,2.206c0.259,0,0.518-0.006,0.777-0.016
			c0.059-0.002,0.118-0.005,0.178-0.008c0.242-0.011,0.484-0.025,0.725-0.045c0.015-0.001,0.029-0.002,0.043-0.003
			c1.051-0.086,2.099-0.249,3.131-0.49l0.144-0.035c0.087-0.021,0.175-0.042,0.263-0.064l0.336-0.113
			c0.314-0.104,0.635-0.19,0.877-0.254l0.155-0.043c0.125-0.032,0.249-0.059,0.39-0.09l0.026-0.004
			c0.028-0.004,0.057-0.013,0.086-0.021l0.059-0.016l0.176-0.033c0.064-0.011,0.129-0.023,0.211-0.039
			c0.027-0.004,0.148-0.028,0.186-0.035c0.078-0.013,0.155-0.024,0.231-0.036l0.143-0.021c0.032-0.003,0.063-0.009,0.093-0.014
			c0.035-0.006,0.069-0.011,0.109-0.017c0.109-0.013,0.221-0.024,0.313-0.032c0.093-0.014,0.178-0.024,0.284-0.031
			c0.1-0.009,0.2-0.018,0.296-0.022l0.069-0.006c0.063-0.005,0.129-0.011,0.183-0.012c0.052-0.002,0.417-0.016,0.417-0.016
			c0.051-0.002,0.101-0.004,0.15-0.004h0.043c6.269,0.081,12.934,3.871,18.813,7.214l0.378,0.214
			c1.574,0.892,3.061,1.733,4.547,2.506c2.865,1.497,5.771,2.669,8.638,3.485c3.367,0.964,6.741,1.464,10.066,1.495
			C95.592,61.26,91.706,56.461,87.311,54.845z"/>
		<path fill="#71C38A" d="M38.31,69.522c-3.519-0.45-6.998-1.388-10.405-2.807c-0.111,1.082-0.172,2.177-0.172,3.285
			c0,1.107,0.061,2.203,0.172,3.284c3.407-1.419,6.886-2.356,10.405-2.806c-0.004-0.159-0.008-0.317-0.008-0.478
			S38.306,69.681,38.31,69.522z"/>
		<path fill="#71C38A" d="M91.245,53.545c0.008,0.005,0.016,0.01,0.023,0.016C91.261,53.556,91.252,53.55,91.245,53.545z"/>
		<path fill="#71C38A" d="M91.268,53.561c0.012,0.009,0.022,0.016,0.032,0.022C91.291,53.576,91.279,53.569,91.268,53.561z"/>
		<path fill="#71C38A" d="M91.268,53.561c0.012,0.009,0.022,0.016,0.032,0.022C91.291,53.576,91.279,53.569,91.268,53.561z"/>
		<path fill="#71C38A" d="M91.3,53.583c0.022,0.014,0.039,0.026,0.046,0.031C91.339,53.61,91.325,53.6,91.3,53.583z"/>
		<path fill="#71C38A" d="M90.942,42.389c-2.195-0.637-4.473-0.979-6.765-1.016h-0.392c-3.486,0.052-7.136,0.799-11.101,2.272
			c2.426,1.222,4.712,2.517,6.837,3.722l0.027,0.015c1.39,0.797,3.003,1.71,4.496,2.491c0.362,0.189,0.724,0.381,1.082,0.572
			c1.077,0.572,2.17,1.154,3.21,1.605l0.101,0.042c0.371,0.14,2.109,0.978,2.667,1.356c4.11,2.666,8.617,8.641,8.617,16.551
			c0,7.909-4.506,13.886-8.617,16.551c-0.558,0.379-2.295,1.217-2.667,1.356l-0.101,0.042c-1.04,0.451-2.133,1.033-3.21,1.605
			c-0.358,0.191-0.72,0.383-1.082,0.572c-1.492,0.78-3.105,1.694-4.496,2.49l-0.027,0.015c-2.125,1.206-4.411,2.501-6.837,3.723
			c3.965,1.474,7.615,2.22,11.101,2.272h0.392c2.292-0.038,4.57-0.38,6.765-1.017C102.625,94.215,110.29,82.861,110.29,70
			C110.29,57.138,102.625,45.785,90.942,42.389z"/>
		<path fill="#71C38A" d="M91.346,53.614C91.352,53.618,91.352,53.618,91.346,53.614L91.346,53.614z"/>
		<path fill="#71C38A" d="M91.245,86.455c0.008-0.006,0.017-0.012,0.023-0.017C91.26,86.443,91.252,86.449,91.245,86.455z"/>
		<path fill="#71C38A" d="M91.104,86.551c0,0,0.073-0.051,0.141-0.096C91.208,86.479,91.164,86.51,91.104,86.551z"/>
		<path fill="#71C38A" d="M91.3,86.417c0.025-0.018,0.04-0.027,0.046-0.031C91.338,86.391,91.322,86.402,91.3,86.417z"/>
		<path fill="#71C38A" d="M91.268,86.438c0.011-0.008,0.022-0.015,0.032-0.021C91.291,86.424,91.28,86.43,91.268,86.438z"/>
		<path fill="#71C38A" d="M91.346,86.386C91.352,86.382,91.352,86.383,91.346,86.386L91.346,86.386z"/>
		<path fill="#71C38A" d="M87.311,85.154c0,0-0.423,0.188-0.555,0.249c-0.135,0.062-0.269,0.12-0.403,0.185
			c-0.16,0.075-0.318,0.154-0.477,0.232c-0.132,0.065-0.265,0.129-0.396,0.195c-0.196,0.1-0.39,0.2-0.585,0.302
			c-0.093,0.049-0.187,0.096-0.28,0.145c-0.296,0.156-0.591,0.312-0.884,0.468l0,0c-0.353,0.188-0.707,0.376-1.063,0.562
			c-1.539,0.805-3.183,1.736-4.586,2.54l-0.025,0.015c-3.774,2.139-8.073,4.576-12.722,6.305l0,0
			c-0.007,0.003-0.015,0.006-0.022,0.009c-0.584,0.217-1.174,0.422-1.769,0.614c-0.076,0.024-0.152,0.05-0.228,0.073
			c-0.141,0.045-0.282,0.089-0.424,0.132c-0.105,0.032-0.211,0.064-0.317,0.096c-0.128,0.037-0.257,0.075-0.386,0.112
			c-0.123,0.034-0.247,0.069-0.37,0.103c-0.117,0.032-0.234,0.064-0.351,0.095c-0.146,0.039-0.293,0.076-0.44,0.112
			c-0.098,0.024-0.196,0.05-0.294,0.073c-0.241,0.059-0.483,0.114-0.727,0.167c-0.008,0.002-0.016,0.004-0.025,0.006
			c-0.001,0-0.003,0-0.004,0.001c-0.178,0.038-0.356,0.073-0.535,0.108c-0.089,0.019-0.177,0.038-0.266,0.055c0,0-0.001,0-0.002,0
			c-0.002,0.001-0.004,0.001-0.006,0.001c-0.355,0.068-0.712,0.128-1.07,0.183c-0.088,0.014-0.177,0.027-0.266,0.04
			c-0.49,0.071-0.983,0.13-1.479,0.177c-0.125,0.011-0.251,0.024-0.377,0.034c0,0-0.001,0.001-0.001,0.001
			c-0.166,0.013-0.333,0.022-0.499,0.032c-0.097,0.006-0.193,0.014-0.289,0.019c-0.001,0-0.001,0-0.002,0
			c-0.314,0.017-0.63,0.028-0.947,0.033h-0.388c-0.309-0.006-0.617-0.017-0.924-0.033c-0.114-0.006-0.228-0.015-0.341-0.022
			c-0.19-0.013-0.38-0.024-0.57-0.042c-0.142-0.012-0.284-0.027-0.426-0.042c-0.16-0.017-0.319-0.033-0.478-0.054
			c-0.155-0.019-0.31-0.04-0.465-0.061c-0.145-0.021-0.289-0.043-0.434-0.066c-0.161-0.025-0.322-0.052-0.483-0.08
			c-0.139-0.025-0.276-0.052-0.415-0.079c-0.161-0.031-0.323-0.062-0.484-0.098c-0.143-0.03-0.285-0.064-0.427-0.098
			c-0.153-0.036-0.307-0.07-0.46-0.108c-0.202-0.051-0.402-0.107-0.602-0.163c-0.086-0.023-0.173-0.045-0.258-0.07
			c-5.271-1.531-9.719-4.687-13.02-8.865c3.345-1.463,6.667-2.206,9.886-2.206c0.259,0,0.518,0.007,0.777,0.016
			c0.059,0.002,0.118,0.006,0.178,0.008c0.242,0.011,0.484,0.025,0.725,0.045c0.015,0.001,0.029,0.002,0.043,0.003
			c1.051,0.087,2.099,0.249,3.131,0.49l0.144,0.034c0.087,0.021,0.175,0.042,0.263,0.064l0.336,0.113
			c0.314,0.104,0.635,0.191,0.877,0.254l0.155,0.044c0.125,0.031,0.249,0.059,0.39,0.089l0.026,0.005
			c0.028,0.005,0.057,0.013,0.086,0.021l0.059,0.016l0.176,0.032c0.064,0.012,0.129,0.023,0.211,0.039
			c0.027,0.005,0.148,0.029,0.186,0.035c0.078,0.013,0.155,0.025,0.231,0.036l0.143,0.021c0.032,0.003,0.063,0.009,0.093,0.014
			c0.035,0.006,0.069,0.012,0.109,0.017c0.109,0.014,0.221,0.024,0.313,0.032c0.093,0.014,0.178,0.023,0.284,0.03
			c0.1,0.009,0.2,0.018,0.296,0.022l0.069,0.005c0.063,0.006,0.129,0.012,0.183,0.013c0.052,0.003,0.417,0.016,0.417,0.016
			c0.051,0.002,0.101,0.005,0.15,0.005h0.043c6.269-0.081,12.934-3.871,18.813-7.215l0.378-0.215
			c1.574-0.891,3.061-1.732,4.547-2.506c2.865-1.497,5.771-2.669,8.638-3.485c3.367-0.964,6.741-1.464,10.066-1.495
			C95.592,78.74,91.706,83.539,87.311,85.154z"/>
	</g>
	<path fill="#71C38A" d="M122.625,57c0,0,1.683-1.254,0.466-2.735l0,0l-4.197-5.491c-1.137-1.543-2.766-0.219-2.766-0.219
		c-1.918,1.547-4.37,3.265-7.229,4.71c1.765,3.078,3.011,6.439,3.707,9.975c0.465-0.218,0.929-0.442,1.391-0.68
		c3.782-1.943,6.518-3.838,8.63-5.558L122.625,57z"/>
	<path fill="#71C38A" d="M122.632,83.004c0,0,1.685,1.258,0.468,2.739l-4.193,5.469c-1.138,1.543-2.771,0.241-2.771,0.241
		c-1.919-1.549-4.375-3.27-7.238-4.718c1.765-3.079,3.011-6.438,3.707-9.975c0.465,0.218,0.929,0.442,1.391,0.68
		C117.782,79.386,120.52,81.282,122.632,83.004z"/>
	<path fill="#71C38A" d="M21.099,48.77c1.137-1.543,2.774-0.217,2.774-0.217c4.396,3.547,11.597,7.994,20.075,7.994
		c0,0,0.001,0,0.002,0c2.089,0,4.179-0.271,6.212-0.806l0.02-0.005c0,0,0.235-0.088,0.275-0.102
		c1.146-0.382,2.357-0.588,3.592-0.608c4.136,0.066,8.73,2.156,12.776,4.312c-1.703,0.971-3.141,1.782-4.602,2.542
		c-3.137,1.636-6.32,2.885-9.463,3.712c-3.196,0.842-6.422,1.27-9.59,1.27c-5.839,0-11.614-1.447-17.164-4.301
		c-3.784-1.943-6.52-3.839-8.632-5.56c0,0-1.687-1.274-0.47-2.755L21.099,48.77z"/>
	<path fill="#71C38A" d="M21.101,91.232l-4.192-5.474c-1.217-1.481,0.461-2.754,0.461-2.754c2.113-1.722,4.85-3.619,8.637-5.564
		c5.55-2.854,11.325-4.301,17.164-4.301c3.168,0,6.394,0.427,9.59,1.27c3.143,0.827,6.327,2.076,9.463,3.712
		c1.461,0.761,2.899,1.571,4.602,2.541c-4.046,2.156-8.64,4.246-12.776,4.312c-1.235-0.021-2.446-0.226-3.592-0.608
		c-0.041-0.014-0.275-0.102-0.275-0.102l-0.02-0.006c-2.033-0.534-4.123-0.806-6.212-0.806c0,0-0.001,0-0.002,0
		c-8.482,0-15.687,4.451-20.082,7.999C23.867,91.452,22.239,92.776,21.101,91.232z"/>
</g>
</svg>
