<?xml version="1.0" encoding="utf-8"?>
<!-- Generator: Adobe Illustrator 17.0.0, SVG Export Plug-In . SVG Version: 6.00 Build 0)  -->
<!DOCTYPE svg PUBLIC "-//W3C//DTD SVG 1.1//EN" "http://www.w3.org/Graphics/SVG/1.1/DTD/svg11.dtd">
<svg version="1.1" id="Layer_1" xmlns="http://www.w3.org/2000/svg" xmlns:xlink="http://www.w3.org/1999/xlink" x="0px" y="0px"
	 width="1280px" height="420px" viewBox="0 0 1280 420" enable-background="new 0 0 1280 420" xml:space="preserve">
<g>
	<g>
		<g>
			<rect x="1097.75" y="350" fill="#FBC0AB" width="61.906" height="5"/>
		</g>
		<g>
			<circle fill="#FBC0AB" cx="1175.583" cy="352.5" r="20.5"/>
		</g>
		<g>
			<circle fill="#FBC0AB" cx="985.5" cy="162.5" r="25.5"/>
		</g>
		<g>
			<rect x="907.295" y="255" fill="#FBC0AB" width="162.205" height="5"/>
		</g>
		<g>
			<rect x="1035" y="160" fill="#FBC0AB" width="124.58" height="5"/>
		</g>
		<g>
			<g>
				<rect x="983" y="82" fill="#FBC0AB" width="5" height="32"/>
			</g>
			<g>
				<rect x="1004.574" y="65" fill="#FBC0AB" width="155.426" height="5"/>
			</g>
			<g>
				<rect x="1078" fill="#FBC0AB" width="5" height="49"/>
			</g>
			<g>
				<circle fill="#FBC0AB" cx="985.5" cy="67.5" r="20.5"/>
			</g>
			<g>
				<circle fill="#FBC0AB" cx="1080.5" cy="67.5" r="20.5"/>
			</g>
			<g>
				<circle fill="#FBC0AB" cx="1175.5" cy="67.5" r="20.5"/>
			</g>
		</g>
		<g>
			<g>
				<rect x="888" y="276" fill="#FBC0AB" width="5" height="58"/>
			</g>
			<g>
				<rect x="983" y="369" fill="#FBC0AB" width="5" height="51"/>
			</g>
			<g>
				<rect x="910" y="350" fill="#FBC0AB" width="155.072" height="5"/>
			</g>
			<g>
				<circle fill="#FBC0AB" cx="890.5" cy="352.5" r="20.5"/>
			</g>
			<g>
				<circle fill="#FBC0AB" cx="985.5" cy="352.5" r="20.5"/>
			</g>
			<g>
				<circle fill="#FBC0AB" cx="1080.5" cy="352.5" r="20.5"/>
			</g>
		</g>
		<g>
			<circle fill="#FBC0AB" cx="1080.5" cy="162.5" r="20.5"/>
		</g>
		<g>
			<circle fill="#FBC0AB" cx="1175.5" cy="162.5" r="20.5"/>
		</g>
		<g>
			<circle fill="#FBC0AB" cx="985.5" cy="257.5" r="20.5"/>
		</g>
		<g>
			<circle fill="#FBC0AB" cx="1080.5" cy="257.5" r="20.5"/>
		</g>
		<g>
			<path fill="#FFFFFF" d="M1177.568,345.795c0.276-0.074,0.461,0.018,0.535,0.258l0.443,1.126c0.092,0.222,0.018,0.443-0.351,0.554
				c-0.886,0.277-3.581,1.458-4.171,3.562c0.314-0.203,1.273-0.536,2.16-0.536c1.9,0,3.875,1.403,3.875,4.116
				c0,2.399-1.956,4.356-4.3,4.356c-2.971,0-4.521-2.381-4.521-5.242C1171.238,348.434,1175.945,346.33,1177.568,345.795z
				 M1177.919,354.838c0-1.274-0.978-2.233-2.196-2.233c-1.255,0-1.993,0.978-2.196,1.661c0,1.31,0.683,2.842,2.215,2.842
				C1176.941,357.108,1177.919,356.185,1177.919,354.838z"/>
		</g>
		<g>
			<path fill="#FFFFFF" d="M981.543,71.211l0.941-0.941c0.13-0.111,0.314-0.148,0.462-0.019c0.535,0.443,1.309,1.071,2.454,1.071
				c1.291,0,2.196-1.052,2.196-2.252c0-1.163-0.794-2.122-2.288-2.122h-2.935c-0.387,0-0.591-0.351-0.591-0.665v-5.61
				c0-0.185,0.148-0.351,0.368-0.351h5.999c0.203,0,0.369,0.166,0.369,0.351v1.292c0,0.203-0.166,0.369-0.369,0.369h-4.227v2.528
				h1.644c2.695,0,4.355,1.735,4.355,4.208c0,2.381-1.975,4.356-4.595,4.356c-2.048,0-3.285-0.997-3.747-1.569
				C981.322,71.561,981.303,71.432,981.543,71.211z"/>
		</g>
		<g>
			<path fill="#FFFFFF" d="M1082.486,59.99c0.277-0.074,0.461,0.019,0.536,0.258l0.442,1.126c0.092,0.222,0.019,0.443-0.35,0.554
				c-0.886,0.277-3.58,1.458-4.171,3.562c0.313-0.203,1.274-0.536,2.159-0.536c1.902,0,3.876,1.403,3.876,4.116
				c0,2.399-1.956,4.356-4.3,4.356c-2.971,0-4.521-2.381-4.521-5.242C1076.156,62.629,1080.861,60.525,1082.486,59.99z
				 M1082.837,69.033c0-1.274-0.979-2.233-2.196-2.233c-1.255,0-1.994,0.978-2.196,1.661c0,1.31,0.683,2.842,2.214,2.842
				C1081.858,71.303,1082.837,70.38,1082.837,69.033z"/>
		</g>
		<g>
			<path fill="#FFFFFF" d="M1176.857,62.37h-5.002c-0.184,0-0.35-0.166-0.35-0.369v-1.329c0-0.185,0.166-0.351,0.35-0.351h7.918
				c0.185,0,0.369,0.166,0.369,0.351c0,0.074,0,0.129-0.073,0.277l-5.592,11.774c-0.147,0.314-0.332,0.517-0.646,0.517h-1.421
				c-0.222,0-0.462-0.056-0.462-0.369c0-0.148,0.019-0.24,0.092-0.388l4.817-10.077V62.37z"/>
		</g>
		<g>
			<path fill="#FFFFFF" d="M886.257,356.265l0.979-0.941c0.166-0.147,0.332-0.147,0.479,0c0.516,0.517,1.181,1.034,2.343,1.034
				c1.163,0,2.012-0.738,2.012-1.717c0-1.217-0.904-1.956-2.621-1.956h-1.07c-0.203,0-0.351-0.148-0.351-0.369v-1.2
				c0-0.258,0.13-0.386,0.351-0.386h1.07c1.57,0,2.362-0.757,2.362-1.736c0-1.033-0.886-1.735-1.846-1.735
				c-0.996,0-1.606,0.518-1.919,0.904c-0.129,0.148-0.351,0.166-0.518,0.019l-0.922-0.868c-0.166-0.128-0.129-0.35,0-0.498
				c0.554-0.701,1.735-1.679,3.561-1.679c2.215,0,4.061,1.347,4.061,3.488c0,1.642-1.108,2.547-1.957,2.934v0.074
				c1.015,0.387,2.289,1.402,2.289,3.082c0,2.159-1.754,3.71-4.374,3.71c-2.362,0-3.525-1.199-3.95-1.68
				C886.129,356.597,886.147,356.395,886.257,356.265z"/>
		</g>
		<g>
			<path fill="#FFFFFF" d="M980.15,355.122v-1.2c0-0.258,0.074-0.461,0.24-0.646l6.533-7.936c0.129-0.148,0.24-0.203,0.479-0.203
				h0.905c0.203,0,0.369,0.166,0.369,0.369v8.01h1.512c0.222,0,0.37,0.147,0.37,0.332v1.273c0,0.184-0.148,0.368-0.37,0.368h-1.512
				l0.018,2.381c0,0.203-0.165,0.369-0.369,0.369h-1.568c-0.185,0-0.37-0.166-0.37-0.369v-2.381h-5.868
				C980.316,355.49,980.15,355.306,980.15,355.122z M982.697,353.571h3.765v-4.595h-0.036l-3.729,4.558V353.571z"/>
		</g>
		<g>
			<path fill="#FFFFFF" d="M1075.295,260.933v-1.2c0-0.258,0.074-0.461,0.24-0.646l6.533-7.936c0.129-0.148,0.24-0.203,0.479-0.203
				h0.905c0.203,0,0.369,0.166,0.369,0.369v8.01h1.512c0.222,0,0.37,0.147,0.37,0.332v1.273c0,0.184-0.148,0.368-0.37,0.368h-1.512
				l0.018,2.381c0,0.203-0.165,0.369-0.369,0.369h-1.568c-0.185,0-0.37-0.166-0.37-0.369v-2.381h-5.868
				C1075.461,261.301,1075.295,261.117,1075.295,260.933z M1077.842,259.382h3.765v-4.595h-0.036l-3.729,4.558V259.382z"/>
		</g>
		<g>
			<rect x="718.667" y="255" fill="#F37575" width="156.333" height="5"/>
		</g>
		<rect x="1000.5" y="160" fill="#F37575" width="31.5" height="5"/>
		<rect x="906" y="160" fill="#F37575" width="65" height="5"/>
		<g>
			<rect x="888" y="181" fill="#F37575" width="5" height="58"/>
		</g>
		<g>
			<rect x="983" y="113" fill="#F37575" width="5" height="33"/>
		</g>
		<g>
			<circle fill="#F37575" cx="890.5" cy="162.5" r="20.5"/>
		</g>
		<g>
			<circle fill="#F37575" cx="985.5" cy="162.5" r="20.5"/>
		</g>
		<g>
			<circle fill="#F37575" cx="795.5" cy="257.5" r="20.5"/>
		</g>
		<g>
			<circle fill="#F37575" cx="890.5" cy="257.5" r="20.5"/>
		</g>
		<g>
			<circle fill="#F37575" cx="700.5" cy="257.5" r="20.5"/>
		</g>
		<polygon fill="#F37575" points="977,117 985.5,107 994,117 		"/>
		<polygon fill="#F37575" points="1031,154 1041,162.5 1031,171 		"/>
		<g>
			<path fill="#FFFFFF" d="M1076.542,356.211l0.942-0.942c0.128-0.111,0.313-0.147,0.46-0.019c0.536,0.443,1.311,1.071,2.454,1.071
				c1.293,0,2.197-1.052,2.197-2.252c0-1.162-0.794-2.122-2.289-2.122h-2.934c-0.387,0-0.591-0.35-0.591-0.665v-5.609
				c0-0.185,0.147-0.351,0.369-0.351h5.998c0.202,0,0.368,0.166,0.368,0.351v1.291c0,0.203-0.166,0.369-0.368,0.369h-4.226v2.528
				h1.642c2.695,0,4.356,1.735,4.356,4.207c0,2.381-1.975,4.356-4.595,4.356c-2.049,0-3.285-0.997-3.747-1.57
				C1076.321,356.561,1076.303,356.431,1076.542,356.211z"/>
		</g>
		<g>
			<path fill="#FFFFFF" d="M886.257,166.265l0.979-0.941c0.166-0.148,0.332-0.148,0.479,0c0.517,0.516,1.181,1.034,2.343,1.034
				c1.163,0,2.012-0.738,2.012-1.717c0-1.218-0.904-1.956-2.621-1.956h-1.07c-0.203,0-0.351-0.148-0.351-0.369v-1.2
				c0-0.258,0.13-0.387,0.351-0.387h1.07c1.57,0,2.362-0.757,2.362-1.735c0-1.034-0.886-1.735-1.846-1.735
				c-0.996,0-1.606,0.517-1.919,0.904c-0.129,0.148-0.351,0.166-0.518,0.019l-0.922-0.867c-0.166-0.129-0.129-0.351,0-0.499
				c0.554-0.701,1.735-1.679,3.561-1.679c2.215,0,4.061,1.347,4.061,3.488c0,1.643-1.108,2.547-1.957,2.934v0.074
				c1.015,0.387,2.289,1.402,2.289,3.082c0,2.159-1.754,3.71-4.374,3.71c-2.362,0-3.525-1.2-3.95-1.68
				C886.129,166.597,886.147,166.395,886.257,166.265z"/>
		</g>
		<g>
			<path fill="#FFFFFF" d="M980.149,165.121v-1.2c0-0.258,0.074-0.461,0.24-0.646l6.533-7.936c0.129-0.148,0.24-0.203,0.479-0.203
				h0.905c0.203,0,0.369,0.166,0.369,0.369v8.01h1.512c0.222,0,0.37,0.148,0.37,0.332v1.273c0,0.185-0.148,0.369-0.37,0.369h-1.512
				l0.018,2.381c0,0.203-0.165,0.369-0.369,0.369h-1.568c-0.185,0-0.37-0.166-0.37-0.369v-2.381h-5.868
				C980.315,165.49,980.149,165.306,980.149,165.121z M982.696,163.571h3.765v-4.595h-0.036l-3.729,4.558V163.571z"/>
		</g>
		<g>
			<path fill="#FFFFFF" d="M1076.542,166.21l0.942-0.941c0.128-0.111,0.313-0.148,0.461-0.018c0.535,0.443,1.311,1.071,2.454,1.071
				c1.293,0,2.197-1.052,2.197-2.252c0-1.163-0.794-2.122-2.289-2.122h-2.934c-0.387,0-0.591-0.351-0.591-0.665v-5.61
				c0-0.185,0.147-0.351,0.369-0.351h5.998c0.202,0,0.368,0.166,0.368,0.351v1.292c0,0.203-0.166,0.369-0.368,0.369h-4.226v2.528
				h1.642c2.695,0,4.356,1.735,4.356,4.208c0,2.381-1.975,4.356-4.595,4.356c-2.049,0-3.285-0.997-3.747-1.569
				C1076.321,166.56,1076.303,166.431,1076.542,166.21z"/>
		</g>
		<g>
			<path fill="#FFFFFF" d="M1177.485,154.989c0.276-0.074,0.461,0.018,0.536,0.258l0.443,1.126c0.092,0.222,0.018,0.443-0.351,0.554
				c-0.886,0.277-3.58,1.458-4.171,3.562c0.314-0.203,1.273-0.536,2.16-0.536c1.9,0,3.875,1.403,3.875,4.116
				c0,2.399-1.956,4.356-4.3,4.356c-2.971,0-4.521-2.381-4.521-5.242C1171.155,157.628,1175.861,155.524,1177.485,154.989z
				 M1177.835,164.032c0-1.274-0.978-2.233-2.196-2.233c-1.255,0-1.993,0.978-2.196,1.661c0,1.31,0.683,2.842,2.215,2.842
				C1176.857,166.302,1177.835,165.379,1177.835,164.032z"/>
		</g>
		<g>
			<path fill="#FFFFFF" d="M794.846,253.772l-1.661,0.369c-0.184,0.036-0.369-0.074-0.388-0.258l-0.11-0.923
				c-0.018-0.203,0.018-0.277,0.184-0.406l2.362-1.993c0.184-0.166,0.388-0.24,0.647-0.24h0.959c0.203,0,0.35,0.166,0.35,0.351
				v12.199c0,0.203-0.147,0.369-0.35,0.369h-1.624c-0.222,0-0.369-0.166-0.369-0.369V253.772z"/>
		</g>
		<g>
			<path fill="#FFFFFF" d="M889.957,261.211h4.06c0.203,0,0.369,0.166,0.369,0.35v1.31c0,0.203-0.166,0.369-0.369,0.369h-7.493
				c-0.202,0-0.35-0.166-0.35-0.369v-0.185c0-0.202,0.092-0.35,0.148-0.424c1.291-1.588,3.561-4.54,4.78-6.146
				c0.591-0.719,0.96-1.457,0.96-2.103c0-0.85-0.647-1.717-2.012-1.717c-0.904,0-1.698,0.647-2.122,1.107
				c-0.166,0.166-0.369,0.166-0.516,0l-0.923-0.904c-0.111-0.111-0.148-0.351-0.018-0.498c0,0,1.494-1.864,3.746-1.864
				c2.732,0,4.245,1.735,4.245,3.783c0,1.237-0.536,1.994-1.274,3.064c-0.793,1.144-2.232,2.916-3.229,4.189V261.211z"/>
		</g>
		<g>
			<path fill="#FFFFFF" d="M981.257,261.266l0.979-0.941c0.166-0.148,0.332-0.148,0.479,0c0.517,0.517,1.181,1.033,2.343,1.033
				c1.163,0,2.012-0.739,2.012-1.717c0-1.218-0.904-1.956-2.621-1.956h-1.07c-0.203,0-0.351-0.147-0.351-0.369v-1.199
				c0-0.258,0.13-0.388,0.351-0.388h1.07c1.57,0,2.362-0.757,2.362-1.734c0-1.034-0.886-1.736-1.846-1.736
				c-0.996,0-1.606,0.517-1.919,0.905c-0.129,0.147-0.351,0.166-0.518,0.018l-0.922-0.867c-0.166-0.13-0.129-0.351,0-0.498
				c0.554-0.702,1.735-1.68,3.561-1.68c2.215,0,4.061,1.347,4.061,3.487c0,1.644-1.108,2.547-1.957,2.935v0.074
				c1.015,0.387,2.289,1.402,2.289,3.082c0,2.159-1.754,3.71-4.374,3.71c-2.362,0-3.525-1.2-3.95-1.68
				C981.129,261.598,981.147,261.394,981.257,261.266z"/>
		</g>
		<g>
			<g>
				<g>
					<rect x="692.3" y="249.3" fill="#FFFFFF" width="1.823" height="16.4"/>
				</g>
			</g>
			<g>
				<path fill="#FFFFFF" d="M704.183,250.937l-0.704,0.074c-0.099-0.484-0.171-0.841-0.196-0.974
					c-0.112-0.592-0.072-0.806-0.91-0.718c-0.837,0.088-6.428,0.675-6.428,0.675v9.024l5.208-0.537
					c0.095,0.454,0.169,0.809,0.208,0.981c0.181,0.795,0.146,0.798,1.161,0.692c1.015-0.106,6.178-0.649,6.178-0.649v-9.039
					L704.183,250.937z"/>
			</g>
		</g>
	</g>
	<rect fill="none" width="1280" height="420"/>
</g>
</svg>
