<?xml version="1.0" encoding="utf-8"?>
<!-- Generator: Adobe Illustrator 17.0.0, SVG Export Plug-In . SVG Version: 6.00 Build 0)  -->
<!DOCTYPE svg PUBLIC "-//W3C//DTD SVG 1.1//EN" "http://www.w3.org/Graphics/SVG/1.1/DTD/svg11.dtd">
<svg version="1.1" id="Layer_1" xmlns="http://www.w3.org/2000/svg" xmlns:xlink="http://www.w3.org/1999/xlink" x="0px" y="0px"
	 width="1280px" height="420px" viewBox="0 0 1280 420" enable-background="new 0 0 1280 420" xml:space="preserve">
<g>
	<g>
		<circle fill="#C7E5CF" cx="516.5" cy="305.5" r="25.5"/>
	</g>
	<g>
		<circle fill="#C7E5CF" cx="516.5" cy="114.5" r="25.5"/>
	</g>
	<g>
		<rect x="439" y="303" fill="#71C38A" width="61.906" height="5"/>
	</g>
	<g>
		<circle fill="#71C38A" cx="516.5" cy="305.5" r="20.5"/>
	</g>
	<g>
		<rect x="342" y="112" fill="#71C38A" width="158.572" height="5"/>
	</g>
	<g>
		<circle fill="#71C38A" cx="421.5" cy="114.5" r="20.5"/>
	</g>
	<g>
		<circle fill="#71C38A" cx="516.5" cy="114.5" r="20.5"/>
	</g>
	<g>
		<rect x="229" y="229" fill="#C7E5CF" width="5" height="58"/>
	</g>
	<g>
		<rect x="251" y="303" fill="#C7E5CF" width="155.072" height="5"/>
	</g>
	<g>
		<circle fill="#C7E5CF" cx="231.5" cy="305.5" r="20.5"/>
	</g>
	<g>
		<circle fill="#C7E5CF" cx="326.5" cy="305.5" r="20.5"/>
	</g>
	<g>
		<circle fill="#C7E5CF" cx="421.5" cy="305.5" r="20.5"/>
	</g>
	<rect x="249" y="112" fill="#C7E5CF" width="62" height="5"/>
	<g>
		<rect x="229" y="134" fill="#C7E5CF" width="5" height="58"/>
	</g>
	<g>
		<circle fill="#C7E5CF" cx="326.5" cy="114.5" r="20.5"/>
	</g>
	<g>
		<path fill="#FFFFFF" d="M227.257,309.265l0.979-0.941c0.166-0.147,0.332-0.147,0.479,0c0.516,0.517,1.181,1.034,2.343,1.034
			c1.163,0,2.012-0.738,2.012-1.717c0-1.217-0.904-1.956-2.621-1.956h-1.07c-0.203,0-0.351-0.148-0.351-0.369v-1.2
			c0-0.258,0.13-0.386,0.351-0.386h1.07c1.57,0,2.362-0.757,2.362-1.736c0-1.033-0.886-1.735-1.846-1.735
			c-0.996,0-1.606,0.518-1.919,0.904c-0.129,0.148-0.351,0.166-0.518,0.019l-0.922-0.868c-0.166-0.128-0.129-0.35,0-0.498
			c0.554-0.701,1.735-1.679,3.561-1.679c2.215,0,4.061,1.347,4.061,3.488c0,1.642-1.108,2.547-1.957,2.934v0.074
			c1.015,0.387,2.289,1.402,2.289,3.082c0,2.159-1.754,3.71-4.374,3.71c-2.362,0-3.525-1.199-3.95-1.68
			C227.129,309.597,227.147,309.395,227.257,309.265z"/>
	</g>
	<g>
		<path fill="#FFFFFF" d="M321.15,308.122v-1.2c0-0.258,0.074-0.461,0.24-0.646l6.533-7.936c0.129-0.148,0.24-0.203,0.479-0.203
			h0.905c0.203,0,0.369,0.166,0.369,0.369v8.01h1.512c0.222,0,0.37,0.147,0.37,0.332v1.273c0,0.184-0.148,0.368-0.37,0.368h-1.512
			l0.018,2.381c0,0.203-0.165,0.369-0.369,0.369h-1.568c-0.185,0-0.37-0.166-0.37-0.369v-2.381h-5.868
			C321.316,308.49,321.15,308.306,321.15,308.122z M323.697,306.571h3.765v-4.595h-0.036l-3.729,4.558V306.571z"/>
	</g>
	<g>
		<path fill="#FFFFFF" d="M417.542,309.211l0.942-0.942c0.128-0.111,0.313-0.147,0.46-0.019c0.536,0.443,1.311,1.071,2.454,1.071
			c1.293,0,2.197-1.052,2.197-2.252c0-1.162-0.794-2.122-2.289-2.122h-2.934c-0.387,0-0.591-0.35-0.591-0.665v-5.609
			c0-0.185,0.147-0.351,0.369-0.351h5.998c0.202,0,0.368,0.166,0.368,0.351v1.291c0,0.203-0.166,0.369-0.368,0.369h-4.226v2.528
			h1.642c2.695,0,4.356,1.735,4.356,4.207c0,2.381-1.975,4.356-4.595,4.356c-2.049,0-3.285-0.997-3.747-1.57
			C417.321,309.561,417.303,309.431,417.542,309.211z"/>
	</g>
	<g>
		<g>
			<circle fill="#C7E5CF" cx="231.5" cy="114.5" r="20.5"/>
		</g>
		<g>
			<path fill="#FFFFFF" d="M227.257,118.265l0.979-0.941c0.166-0.148,0.332-0.148,0.479,0c0.516,0.516,1.181,1.034,2.343,1.034
				c1.163,0,2.012-0.738,2.012-1.717c0-1.218-0.904-1.956-2.621-1.956h-1.07c-0.203,0-0.351-0.148-0.351-0.369v-1.2
				c0-0.258,0.13-0.387,0.351-0.387h1.07c1.57,0,2.362-0.757,2.362-1.735c0-1.034-0.886-1.735-1.846-1.735
				c-0.996,0-1.606,0.517-1.919,0.904c-0.129,0.148-0.351,0.166-0.518,0.019l-0.922-0.867c-0.166-0.129-0.129-0.351,0-0.499
				c0.553-0.701,1.735-1.679,3.561-1.679c2.215,0,4.061,1.347,4.061,3.488c0,1.643-1.108,2.547-1.957,2.934v0.074
				c1.015,0.387,2.289,1.402,2.289,3.082c0,2.159-1.754,3.71-4.374,3.71c-2.362,0-3.525-1.2-3.95-1.68
				C227.129,118.597,227.147,118.395,227.257,118.265z"/>
		</g>
	</g>
	<g>
		<path fill="#FFFFFF" d="M321.149,117.121v-1.2c0-0.258,0.074-0.461,0.24-0.646l6.533-7.936c0.129-0.148,0.24-0.203,0.479-0.203
			h0.905c0.203,0,0.369,0.166,0.369,0.369v8.01h1.512c0.222,0,0.37,0.148,0.37,0.332v1.273c0,0.185-0.148,0.369-0.37,0.369h-1.512
			l0.018,2.381c0,0.203-0.165,0.369-0.369,0.369h-1.568c-0.185,0-0.37-0.166-0.37-0.369v-2.381h-5.868
			C321.315,117.49,321.149,117.306,321.149,117.121z M323.696,115.571h3.765v-4.595h-0.036l-3.729,4.558V115.571z"/>
	</g>
	<g>
		<path fill="#FFFFFF" d="M417.542,118.21l0.942-0.941c0.128-0.111,0.313-0.148,0.46-0.019c0.536,0.443,1.311,1.071,2.454,1.071
			c1.293,0,2.197-1.052,2.197-2.252c0-1.163-0.794-2.122-2.289-2.122h-2.934c-0.387,0-0.591-0.351-0.591-0.665v-5.61
			c0-0.185,0.147-0.351,0.369-0.351h5.998c0.202,0,0.368,0.166,0.368,0.351v1.292c0,0.203-0.166,0.369-0.368,0.369h-4.226v2.528
			h1.642c2.695,0,4.356,1.735,4.356,4.208c0,2.381-1.975,4.356-4.595,4.356c-2.049,0-3.285-0.997-3.747-1.569
			C417.321,118.56,417.303,118.431,417.542,118.21z"/>
	</g>
	<g>
		<path fill="#FFFFFF" d="M518.485,106.989c0.276-0.074,0.461,0.019,0.535,0.258l0.443,1.126c0.092,0.222,0.018,0.443-0.351,0.554
			c-0.886,0.277-3.581,1.458-4.171,3.562c0.314-0.203,1.273-0.536,2.16-0.536c1.9,0,3.875,1.403,3.875,4.116
			c0,2.399-1.956,4.356-4.3,4.356c-2.971,0-4.521-2.381-4.521-5.242C512.155,109.628,516.861,107.524,518.485,106.989z
			 M518.835,116.032c0-1.274-0.978-2.233-2.196-2.233c-1.255,0-1.993,0.978-2.196,1.661c0,1.31,0.683,2.842,2.215,2.842
			C517.857,118.302,518.835,117.379,518.835,116.032z"/>
	</g>
	<g>
		<path fill="#FFFFFF" d="M518.485,298.795c0.276-0.074,0.461,0.018,0.535,0.258l0.443,1.126c0.092,0.222,0.018,0.443-0.351,0.554
			c-0.886,0.277-3.581,1.458-4.171,3.562c0.314-0.203,1.273-0.536,2.16-0.536c1.9,0,3.875,1.403,3.875,4.116
			c0,2.399-1.956,4.356-4.3,4.356c-2.971,0-4.521-2.381-4.521-5.242C512.155,301.434,516.861,299.33,518.485,298.795z
			 M518.835,307.838c0-1.274-0.978-2.233-2.196-2.233c-1.255,0-1.993,0.978-2.196,1.661c0,1.31,0.683,2.842,2.215,2.842
			C517.857,310.108,518.835,309.185,518.835,307.838z"/>
	</g>
	<g>
		<circle fill="#C7E5CF" cx="326.5" cy="209" r="20.5"/>
	</g>
	<g>
		<circle fill="#C7E5CF" cx="421.5" cy="209" r="20.5"/>
	</g>
	<g>
		<rect x="59.594" y="206.5" fill="#C7E5CF" width="346.406" height="5"/>
	</g>
	<g>
		<circle fill="#C7E5CF" cx="231.5" cy="209" r="20.5"/>
	</g>
	<g>
		<circle fill="#C7E5CF" cx="41.5" cy="209" r="20.5"/>
	</g>
	<g>
		<path fill="#FFFFFF" d="M416.295,212.433v-1.2c0-0.258,0.074-0.461,0.24-0.646l6.533-7.936c0.129-0.148,0.24-0.203,0.479-0.203
			h0.905c0.203,0,0.369,0.166,0.369,0.369v8.01h1.513c0.222,0,0.37,0.147,0.37,0.332v1.273c0,0.184-0.148,0.368-0.37,0.368h-1.513
			l0.018,2.381c0,0.203-0.165,0.369-0.369,0.369h-1.568c-0.185,0-0.37-0.166-0.37-0.369v-2.381h-5.868
			C416.461,212.801,416.295,212.617,416.295,212.433z M418.842,210.882h3.765v-4.595h-0.036l-3.729,4.558V210.882z"/>
	</g>
	<g>
		<g>
			<circle fill="#C7E5CF" cx="136.5" cy="209" r="20.5"/>
		</g>
		<g>
			<path fill="#FFFFFF" d="M135.846,205.272l-1.661,0.369c-0.184,0.036-0.369-0.074-0.388-0.258l-0.11-0.923
				c-0.018-0.203,0.018-0.277,0.184-0.406l2.362-1.993c0.184-0.166,0.388-0.24,0.647-0.24h0.959c0.203,0,0.35,0.166,0.35,0.351
				v12.199c0,0.203-0.147,0.369-0.35,0.369h-1.624c-0.222,0-0.369-0.166-0.369-0.369V205.272z"/>
		</g>
	</g>
	<g>
		<path fill="#FFFFFF" d="M230.957,212.711h4.06c0.203,0,0.369,0.166,0.369,0.35v1.31c0,0.203-0.166,0.369-0.369,0.369h-7.493
			c-0.202,0-0.35-0.166-0.35-0.369v-0.185c0-0.202,0.092-0.35,0.148-0.424c1.291-1.588,3.561-4.54,4.78-6.146
			c0.591-0.719,0.96-1.457,0.96-2.103c0-0.85-0.647-1.717-2.012-1.717c-0.904,0-1.698,0.647-2.122,1.107
			c-0.166,0.166-0.369,0.166-0.517,0l-0.923-0.904c-0.111-0.111-0.148-0.351-0.018-0.498c0,0,1.494-1.864,3.746-1.864
			c2.732,0,4.245,1.735,4.245,3.783c0,1.237-0.536,1.994-1.274,3.064c-0.793,1.144-2.232,2.916-3.229,4.189V212.711z"/>
	</g>
	<g>
		<path fill="#FFFFFF" d="M322.257,212.766l0.979-0.941c0.166-0.148,0.332-0.148,0.479,0c0.516,0.516,1.181,1.033,2.343,1.033
			c1.163,0,2.012-0.739,2.012-1.717c0-1.218-0.904-1.956-2.621-1.956h-1.07c-0.203,0-0.351-0.147-0.351-0.369v-1.199
			c0-0.258,0.13-0.388,0.351-0.388h1.07c1.57,0,2.362-0.757,2.362-1.734c0-1.034-0.886-1.736-1.846-1.736
			c-0.996,0-1.606,0.517-1.919,0.905c-0.129,0.147-0.351,0.166-0.518,0.018l-0.922-0.867c-0.166-0.13-0.129-0.351,0-0.498
			c0.553-0.702,1.735-1.68,3.561-1.68c2.215,0,4.061,1.347,4.061,3.487c0,1.644-1.108,2.547-1.957,2.935v0.074
			c1.015,0.387,2.289,1.402,2.289,3.082c0,2.159-1.754,3.71-4.374,3.71c-2.362,0-3.525-1.2-3.95-1.68
			C322.129,213.098,322.147,212.894,322.257,212.766z"/>
	</g>
	<g>
		<g>
			<g>
				<rect x="33.3" y="200.8" fill="#FFFFFF" width="1.823" height="16.4"/>
			</g>
		</g>
		<g>
			<path fill="#FFFFFF" d="M45.183,202.437l-0.704,0.074c-0.099-0.484-0.171-0.841-0.196-0.974c-0.112-0.592-0.072-0.806-0.91-0.718
				c-0.837,0.088-6.428,0.675-6.428,0.675v9.024l5.208-0.537c0.095,0.454,0.169,0.809,0.208,0.981
				c0.181,0.795,0.146,0.798,1.161,0.692c1.015-0.106,6.178-0.649,6.178-0.649v-9.039L45.183,202.437z"/>
		</g>
	</g>
	<rect x="555" y="112" fill="#71C38A" width="15.75" height="5"/>
	<polygon fill="#71C38A" points="570,106 580,114.5 570,123 	"/>
	<rect x="555" y="303" fill="#71C38A" width="15.75" height="5"/>
	<polygon fill="#71C38A" points="570,297 580,305.5 570,314 	"/>
	<rect fill="none" width="1280" height="420"/>
</g>
</svg>
