<?xml version="1.0" encoding="utf-8"?>
<!-- Generator: Adobe Illustrator 17.0.0, SVG Export Plug-In . SVG Version: 6.00 Build 0)  -->
<!DOCTYPE svg PUBLIC "-//W3C//DTD SVG 1.1//EN" "http://www.w3.org/Graphics/SVG/1.1/DTD/svg11.dtd">
<svg version="1.1" id="Layer_1" xmlns="http://www.w3.org/2000/svg" xmlns:xlink="http://www.w3.org/1999/xlink" x="0px" y="0px"
	 width="1280px" height="420px" viewBox="0 0 1280 420" enable-background="new 0 0 1280 420" xml:space="preserve">
<g>
	<g>
		<g>
			<g>
				<circle fill="#FBC0AB" cx="575.5" cy="209.5" r="25.5"/>
			</g>
			<g>
				<g>
					<rect x="403.667" y="207" fill="#F37575" width="156.406" height="5"/>
				</g>
				<g>
					<circle fill="#F37575" cx="480.5" cy="209.5" r="20.5"/>
				</g>
				<g>
					<circle fill="#F37575" cx="575.5" cy="209.5" r="20.5"/>
				</g>
				<g>
					<rect x="213.667" y="207" fill="#F37575" width="153.333" height="5"/>
				</g>
				<g>
					<circle fill="#F37575" cx="290.5" cy="209.5" r="20.5"/>
				</g>
				<g>
					<circle fill="#F37575" cx="385.5" cy="209.5" r="20.5"/>
				</g>
				<g>
					<circle fill="#F37575" cx="195.5" cy="209.5" r="20.5"/>
				</g>
			</g>
		</g>
		<g>
			<path fill="#FFFFFF" d="M570.295,212.933v-1.2c0-0.258,0.074-0.461,0.24-0.646l6.533-7.936c0.129-0.148,0.24-0.203,0.479-0.203
				h0.905c0.203,0,0.369,0.166,0.369,0.369v8.01h1.512c0.222,0,0.37,0.147,0.37,0.332v1.273c0,0.184-0.148,0.368-0.37,0.368h-1.512
				l0.018,2.381c0,0.203-0.165,0.369-0.369,0.369h-1.568c-0.185,0-0.37-0.166-0.37-0.369v-2.381h-5.868
				C570.461,213.301,570.295,213.117,570.295,212.933z M572.842,211.382h3.765v-4.595h-0.036l-3.729,4.558V211.382z"/>
		</g>
		<g>
			<path fill="#FFFFFF" d="M289.846,205.772l-1.661,0.369c-0.184,0.036-0.369-0.074-0.388-0.258l-0.11-0.923
				c-0.018-0.203,0.018-0.277,0.184-0.406l2.362-1.993c0.184-0.166,0.388-0.24,0.647-0.24h0.959c0.203,0,0.35,0.166,0.35,0.351
				v12.199c0,0.203-0.147,0.369-0.35,0.369h-1.624c-0.222,0-0.369-0.166-0.369-0.369V205.772z"/>
		</g>
		<g>
			<path fill="#FFFFFF" d="M384.957,213.211h4.06c0.203,0,0.369,0.166,0.369,0.35v1.31c0,0.203-0.166,0.369-0.369,0.369h-7.493
				c-0.202,0-0.35-0.166-0.35-0.369v-0.185c0-0.202,0.092-0.35,0.148-0.424c1.291-1.588,3.561-4.54,4.78-6.146
				c0.591-0.719,0.96-1.457,0.96-2.103c0-0.85-0.647-1.717-2.012-1.717c-0.904,0-1.698,0.647-2.122,1.107
				c-0.166,0.166-0.369,0.166-0.516,0l-0.923-0.904c-0.111-0.111-0.148-0.351-0.018-0.498c0,0,1.494-1.864,3.746-1.864
				c2.732,0,4.245,1.735,4.245,3.783c0,1.237-0.536,1.994-1.274,3.064c-0.793,1.144-2.232,2.916-3.229,4.189V213.211z"/>
		</g>
		<g>
			<path fill="#FFFFFF" d="M476.257,213.266l0.979-0.941c0.166-0.148,0.332-0.148,0.479,0c0.517,0.516,1.181,1.033,2.343,1.033
				c1.163,0,2.012-0.739,2.012-1.717c0-1.218-0.904-1.956-2.621-1.956h-1.07c-0.203,0-0.351-0.147-0.351-0.369v-1.199
				c0-0.258,0.13-0.388,0.351-0.388h1.07c1.57,0,2.362-0.757,2.362-1.734c0-1.034-0.886-1.736-1.846-1.736
				c-0.996,0-1.606,0.517-1.919,0.905c-0.129,0.147-0.351,0.166-0.518,0.018l-0.922-0.867c-0.166-0.13-0.129-0.351,0-0.498
				c0.553-0.702,1.735-1.68,3.561-1.68c2.215,0,4.061,1.347,4.061,3.487c0,1.644-1.108,2.547-1.957,2.935v0.074
				c1.015,0.387,2.289,1.402,2.289,3.082c0,2.159-1.754,3.71-4.374,3.71c-2.362,0-3.525-1.2-3.95-1.68
				C476.129,213.598,476.147,213.394,476.257,213.266z"/>
		</g>
		<g>
			<g>
				<g>
					<rect x="187.3" y="201.3" fill="#FFFFFF" width="1.823" height="16.4"/>
				</g>
			</g>
			<g>
				<path fill="#FFFFFF" d="M199.183,202.937l-0.704,0.074c-0.099-0.484-0.171-0.841-0.196-0.974
					c-0.112-0.592-0.072-0.806-0.91-0.718c-0.837,0.088-6.428,0.675-6.428,0.675v9.024l5.208-0.537
					c0.095,0.454,0.169,0.809,0.208,0.981c0.181,0.795,0.146,0.798,1.161,0.692c1.015-0.106,6.178-0.649,6.178-0.649v-9.039
					L199.183,202.937z"/>
			</g>
		</g>
	</g>
	<rect fill="none" width="1280" height="420"/>
</g>
</svg>
